<svg xmlns="http://www.w3.org/2000/svg" viewBox="0 -0.5 23 32" shape-rendering="crispEdges">

<path stroke="#808000" d="M9 0h5M7 1h2M14 1h2M6 2h1M16 2h1M5 3h1M4 4h1M4 5h1M3 6h1M18 6h1M3 7h1M18 7h1M3 8h1M18 8h1M3 9h1M18 9h1M3 10h1M18 10h1M17 11h1M5 12h1M17 12h1M6 13h1M16 13h1M7 14h1M15 14h1M7 15h1M15 15h1M8 16h2M13 16h2M10 17h3" />
<path stroke="#ffff00" d="M9 1h5M7 2h1M9 2h1M11 2h1M13 2h1M15 2h1M6 3h1M14 3h3M5 4h1M13 4h1M15 4h1M17 4h1M14 5h1M16 5h2M4 6h1M13 6h1M15 6h1M17 6h1M4 7h1M14 7h1M16 7h2M5 8h1M13 8h1M15 8h1M17 8h1M4 9h3M8 9h1M10 9h1M12 9h1M14 9h1M16 9h2M4 10h2M7 10h1M9 10h1M11 10h1M13 10h1M15 10h1M17 10h1M5 11h4M14 11h3M6 12h2M9 12h1M13 12h1M15 12h1M7 13h3M13 13h3M8 14h2M11 14h1M13 14h1M8 15h7M10 16h3" />
<path stroke="#ffffff" d="M8 2h1M10 2h1M12 2h1M14 2h1M7 3h3M13 3h1M6 4h4M14 4h1M16 4h1M5 5h5M13 5h1M15 5h1M5 6h5M14 6h1M16 6h1M5 7h5M13 7h1M15 7h1M4 8h1M6 8h5M12 8h1M14 8h1M16 8h1M7 9h1M9 9h1M13 9h1M15 9h1M6 10h1M8 10h1M10 10h1M12 10h1M14 10h1M16 10h1M9 11h1M13 11h1M8 12h1M14 12h1M16 12h1M5 14h1M10 14h1M12 14h1M14 14h1M17 14h1M4 15h1M18 15h1M3 16h1M5 16h1M17 16h1M19 16h1M2 17h1M4 17h1M6 17h1M16 17h1M18 17h1M20 17h1M3 18h1M5 18h1M8 18h2M17 18h1M19 18h1M4 19h1M6 19h1M10 19h1M16 19h1M18 19h1M5 20h1M7 20h1M9 20h1M15 20h1M17 20h1M6 21h1M10 21h1M16 21h1M7 22h1M15 22h1M8 23h1M14 23h1M9 24h1M11 24h1M13 24h1M10 25h1M12 25h1M11 26h1" />
<path stroke="#808080" d="M10 3h1M12 3h1M10 7h1M12 7h1M10 11h1M12 11h1M4 13h1M10 13h1M12 13h1M3 14h1M2 15h1M1 16h1M7 17h1M7 18h1M1 19h1M7 19h2M21 19h1M0 20h3M8 20h1M20 20h3M1 21h3M8 21h2M19 21h3M2 22h3M18 22h3M3 23h3M17 23h3M4 24h3M16 24h3M5 25h3M15 25h3M6 26h3M14 26h3M7 27h3M13 27h3M8 28h3M12 28h3M9 29h5M10 30h3M11 31h1" />
<path stroke="#000000" d="M11 3h1M17 3h1M10 4h3M18 4h1M10 5h3M18 5h1M10 6h3M19 6h1M11 7h1M19 7h1M11 8h1M19 8h1M11 9h1M19 9h1M19 10h1M4 11h1M11 11h1M18 11h1M4 12h1M10 12h3M18 12h1M5 13h1M11 13h1M17 13h2M6 14h1M16 14h1M19 14h1M6 15h1M16 15h1M20 15h1M7 16h1M15 16h1M21 16h1M0 17h1M8 17h2M13 17h3M22 17h1M1 18h1M10 18h3M15 18h1M21 18h1M2 19h1M9 19h1M13 19h3M20 19h1M3 20h1M10 20h3M14 20h1M19 20h1M4 21h1M13 21h2M18 21h1M5 22h1M9 22h5M17 22h1M6 23h1M10 23h3M16 23h1M7 24h1M15 24h1M8 25h1M14 25h1M9 26h1M13 26h1M10 27h1M12 27h1M11 28h1" />
<path stroke="#00ffff" d="M4 14h1M18 14h1M3 15h1M5 15h1M17 15h1M19 15h1M2 16h1M4 16h1M6 16h1M16 16h1M18 16h1M20 16h1M1 17h1M3 17h1M5 17h1M17 17h1M19 17h1M21 17h1M2 18h1M4 18h1M6 18h1M16 18h1M18 18h1M20 18h1M3 19h1M5 19h1M17 19h1M19 19h1M4 20h1M6 20h1M16 20h1M18 20h1M5 21h1M7 21h1M15 21h1M17 21h1M6 22h1M8 22h1M14 22h1M16 22h1M7 23h1M9 23h1M13 23h1M15 23h1M8 24h1M10 24h1M12 24h1M14 24h1M9 25h1M11 25h1M13 25h1M10 26h1M12 26h1M11 27h1" />
<path stroke="#c0c0c0" d="M13 18h2M11 19h2M13 20h1M11 21h2" />
</svg>